<svg width="33" height="18" viewBox="0 0 33 18" fill="none" xmlns="http://www.w3.org/2000/svg">
<path d="M7.02439 18C10.9039 18 14.0488 14.8551 14.0488 10.9756C14.0488 7.09615 10.9039 3.95122 7.02439 3.95122C6.41801 3.95122 5.82958 4.02805 5.26829 4.17252C5.56098 3.07436 6.40976 0.702439 7.46341 0C4.97561 1.60976 0 6.05854 0 10.9756C0 14.8551 3.14493 18 7.02439 18Z" fill="#8CA0C3"/>
<path d="M25.0732 18C28.9527 18 32.0976 14.8551 32.0976 10.9756C32.0976 7.09615 28.9527 3.95122 25.0732 3.95122C24.4668 3.95122 23.8784 4.02805 23.3171 4.17252C23.6098 3.07436 24.4586 0.702439 25.5122 0C23.0244 1.60976 18.0488 6.05854 18.0488 10.9756C18.0488 14.8551 21.1938 18 25.0732 18Z" fill="#8CA0C3"/>
</svg>
