<svg width="120" height="24" viewBox="0 0 120 24" fill="none" xmlns="http://www.w3.org/2000/svg">
<g clip-path="url(#clip0_2002_684)">
<path d="M90.2207 7.52893H90.6153V0H90.3567L89.282 1.50183C88.5967 0.79312 86.982 0.468994 86.2813 0.468994C82.7273 0.468994 80.276 5.03387 80.276 10.3919C80.276 16.5607 82.7773 20.2741 86.31 20.2741C89.6873 20.2741 90.9247 15.8999 91.068 12.7295H90.628C90.31 15.2079 89.2147 18.8515 87.208 18.8515C85.6887 18.8515 85.44 16.9693 85.44 13.9979V6.0667C85.44 3.30901 85.9707 1.40594 87.4027 1.40594C88.9653 1.40594 90.0587 4.395 90.2227 7.52993H90.2207V7.52893ZM6.02893 1.88015V9.43093H6.89393C7.51867 9.43093 8.1914 9.0172 8.1914 7.1412V4.0865C8.1914 1.86035 7.4546 1.88119 6.99607 1.88119L6.02893 1.88223V1.88015ZM0 18.839H1.28448V1.88015H0V1.00261L7.58173 1.00469C10.3819 1.00469 12.4863 2.64304 12.4863 5.16831C12.4863 7.67587 11.323 9.5154 9.0244 9.84573V10.1147C11.0087 10.0751 13.3654 11.7071 13.3654 14.2543C13.3654 17.9291 10.9586 19.7624 7.6508 19.7624H0V18.839ZM6.01492 10.3637L6.02793 18.839H6.949C7.41953 18.84 8.61493 18.864 8.61493 16.5503V12.6211C8.61493 10.9599 7.61673 10.3637 6.89193 10.3637H6.01492ZM14.2394 1.87598H15.5269V18.8379H14.2394V19.7541H25.4283V12.7201H25.0819C24.7335 16.0698 23.7123 18.8525 20.2693 18.8452L20.2463 10.3617H20.7078C22.0854 10.3617 22.6801 12.2283 22.8653 14.1199H23.2978V5.66128H22.8663C22.7391 7.605 22.0654 9.42993 20.7088 9.42993H20.2703L20.2473 1.87806C20.2473 1.87806 24.321 0.846273 24.6183 7.55393H25.0358V0.996353H14.2394V1.87598ZM31.9327 1.89682V18.8473H29.1205V18.3763C29.7522 16.7347 30.2047 11.9302 30.2047 8.9588V3.78009C30.2047 2.37415 30.6252 1.89682 31.0687 1.89682C31.0697 1.89682 31.9327 1.89682 31.9327 1.89682ZM27.1903 1.00261V1.88953H28.5088C28.9303 1.88953 29.3427 2.35331 29.3427 3.77071V9.23087C29.3427 13.6279 28.9073 18.0198 27.6147 18.8473H26.3203V24H26.7517C26.7517 21.3695 27.6708 19.7634 29.7733 19.7634H34.5227C36.7082 19.7634 37.9767 20.9932 37.9767 24H38.4082V18.8483H36.6802V1.89787L37.9757 1.88953V1.00261H27.1893H27.1903ZM53.9581 4.71808H53.5195L53.5075 16.9307C53.5075 18.2605 54.2193 18.8452 55.2215 18.8557L55.2355 19.7624H50.9336V18.8651C51.5563 18.8651 52.6575 18.7462 52.6575 16.9526L52.6605 1.87077H51.3681V0.99948H57.3169L58.6995 7.37887L60.0801 0.99948L66.4665 0.997393V1.84679H65.1509L65.1729 18.8421H66.4655V19.7551H59.124V18.8421H60.4285V4.7087H60.0821L57.405 19.7634L57.0115 19.7551L53.9581 4.71808ZM96.2547 1.87493C94.0673 1.87493 92.828 4.72433 92.828 7.5362H92.3713V0.984887L104.879 1.00052V7.53727H104.42C104.42 4.96092 103.364 1.87389 100.981 1.87389V18.8577H102.722V19.7551H94.546V18.8577H96.2527V1.87389L96.2547 1.87493ZM105.757 1.86764H107.058V18.839H105.765V19.7551H112.647V18.839H111.765V17.9177L113.593 8.02813H113.939L113.966 18.839H113.086V19.7551H120V18.8546H118.673V1.88327H120V1.00052H113.088V1.88327H113.967V2.84836L112.137 12.2439H111.791V1.86764H112.671V1.00052H105.757V1.86764ZM43.5711 2.81084C43.5711 1.66441 44.0917 1.29234 44.6653 1.29234C45.24 1.29234 45.7546 1.66441 45.7546 2.81084V17.8635C45.7546 19.0109 45.24 19.4309 44.6653 19.4309C44.0917 19.4309 43.5711 19.0109 43.5711 17.8635V2.81084ZM38.8367 10.3981C38.8367 15.0391 40.6678 20.2533 44.6643 20.2533C48.6659 20.2533 50.4991 15.0964 50.4991 10.4586C50.4991 5.81761 48.667 0.470036 44.6653 0.470036C40.6677 0.470036 38.8367 5.76029 38.8367 10.3981ZM72.0647 2.81084C72.0647 1.66441 72.5867 1.29234 73.1593 1.29234C73.734 1.29234 74.2493 1.66441 74.2493 2.81084V17.8635C74.2493 19.0109 73.734 19.4309 73.1593 19.4309C72.5867 19.4309 72.0647 19.0109 72.0647 17.8635V2.81084ZM67.3307 10.3981C67.3307 15.0391 69.1613 20.2533 73.158 20.2533C77.16 20.2533 78.992 15.0964 78.992 10.4586C78.992 5.81761 77.1607 0.470036 73.1593 0.470036C69.1613 0.470036 67.3307 5.75925 67.3307 10.3981Z" fill="#191E28"/>
</g>
<defs>
<clipPath id="clip0_2002_684">
<rect width="120" height="24" fill="white"/>
</clipPath>
</defs>
</svg>
