<svg width="107" height="24" viewBox="0 0 107 24" fill="none" xmlns="http://www.w3.org/2000/svg">
<path d="M12.4414 7.05745H13.5441V18.3982H15.7482V5.32528H12.4357C9.12317 5.32528 7.38844 7.05745 7.38844 9.57767C7.38844 11.6247 8.33992 12.7271 10.0746 13.9878L7.07883 18.3982H9.60246L12.7566 13.5149L11.6525 12.7271C10.233 11.7827 9.60246 10.9949 9.60246 9.42077C9.60246 8.00211 10.5483 7.05745 12.4414 7.05745Z" fill="#191E28"/>
<path fill-rule="evenodd" clip-rule="evenodd" d="M12.0172 24C15.2044 24 18.261 22.7358 20.5147 20.4852C22.7684 18.2349 24.0345 15.1825 24.0345 12C24.0345 8.81746 22.7684 5.76507 20.5147 3.5148C18.261 1.26425 15.2044 0 12.0172 0C8.83005 0 5.77342 1.26425 3.51978 3.5148C1.26613 5.76507 0 8.81746 0 12C0 15.1825 1.26613 18.2349 3.51978 20.4852C5.77342 22.7358 8.83005 24 12.0172 24ZM12.0172 21.8655C14.639 21.8655 17.1533 20.8255 19.0071 18.9742C20.861 17.1232 21.9024 14.6123 21.9024 11.9942C21.9021 9.37638 20.8605 6.86608 19.0067 5.0148C17.153 3.16379 14.6389 2.12371 12.0172 2.12344C9.39536 2.12316 6.88091 3.16324 5.02683 5.01425C3.17275 6.86553 2.1309 9.37638 2.13056 11.9942C2.13056 13.2907 2.38626 14.5745 2.88315 15.7721C3.38005 16.9699 4.10835 18.0582 5.02642 18.9747C5.94448 19.8913 7.03437 20.6184 8.23389 21.1144C9.4334 21.6105 10.7189 21.8655 12.0172 21.8655Z" fill="#191E28"/>
<path fill-rule="evenodd" clip-rule="evenodd" d="M29.3857 4.2579H33.3867C35.2199 4.2579 36.637 4.69191 37.638 5.55965C38.639 6.42739 39.1389 7.65414 39.138 9.24017C39.138 10.9624 38.629 12.1864 37.5828 13.0166C36.5366 13.8466 35.1356 14.263 33.3768 14.263H31.9234V19.9991H29.3857V4.2579ZM33.4065 12.2611C34.3942 12.2611 35.1737 12.0152 35.7449 11.523C36.3161 11.0305 36.5988 10.2618 36.5932 9.2159C36.5932 8.19954 36.3274 7.45285 35.7958 6.97555C35.2642 6.49825 34.4965 6.25947 33.4927 6.25836H31.9234V12.2611H33.4065Z" fill="#191E28"/>
<path fill-rule="evenodd" clip-rule="evenodd" d="M49.1561 19.2863C48.7057 19.5885 48.2105 19.8182 47.6886 19.9665C46.9782 20.18 46.2389 20.2809 45.4972 20.266C43.8007 20.266 42.4948 19.7724 41.5796 18.785C40.6644 17.7979 40.2068 16.3017 40.2068 14.2972C40.1896 13.2397 40.3624 12.1878 40.7172 11.1913C41.0162 10.337 41.5612 9.59007 42.2837 9.04384C42.9878 8.52436 43.8775 8.26461 44.9529 8.26461C45.7523 8.24531 46.5429 8.43502 47.2461 8.81526C47.8965 9.18226 48.3997 9.76765 48.756 10.5714C49.1123 11.3746 49.2905 12.5324 49.2905 13.7959V15.2076H42.7446C42.7898 16.248 43.0599 16.9936 43.4996 17.499C43.9393 18.0044 44.6391 18.2755 45.6838 18.2755C46.3446 18.2669 46.9993 18.1481 47.6208 17.9239C48.1606 17.7505 48.6764 17.51 49.1561 17.2081V19.2863ZM44.9798 10.2607C43.566 10.2607 42.8068 11.3112 42.7446 13.3285H46.8856V13.0293C46.8856 12.2584 46.7668 11.5696 46.4926 11.0457C46.2183 10.5221 45.7149 10.2607 44.9798 10.2607Z" fill="#191E28"/>
<path d="M53.8315 14.263L57.9739 19.9991H60.9104L56.5022 13.862L60.5103 8.52711H57.8396L53.8315 13.9963V8.52711H51.4281V19.9991H53.8315V14.263Z" fill="#191E28"/>
<path d="M61.7134 17.8632C61.8554 17.9443 62.015 17.9898 62.1785 17.9959C62.6493 17.9959 62.9618 17.7234 63.106 17.2533C63.2502 16.7832 63.3449 15.9121 63.3887 14.6402L63.5811 8.52574H71.0614V19.9977H68.6579V10.5221H65.778L65.6183 14.7502C65.5985 15.7889 65.4845 16.8237 65.2776 17.842C65.0957 18.6447 64.7997 19.2353 64.3897 19.6136C63.9797 19.9936 63.4001 20.1276 62.6465 20.1276C62.33 20.1259 62.0151 20.0813 61.7106 19.9949L61.7134 17.8632Z" fill="#191E28"/>
<path fill-rule="evenodd" clip-rule="evenodd" d="M81.7511 17.1698V12.1282C81.7511 10.663 81.4754 9.71553 80.794 9.12684C80.1125 8.53814 79.0593 8.25579 77.6638 8.25579C76.8764 8.24173 76.092 8.35754 75.3424 8.59881C74.7805 8.78134 74.24 9.02399 73.7306 9.32316V11.4563C74.212 11.1113 74.7444 10.843 75.3084 10.6616C75.9567 10.412 76.6428 10.275 77.3372 10.2563C78.0201 10.2563 78.5318 10.4327 78.8584 10.7082C79.185 10.9834 79.3477 11.4563 79.3477 12.1282V12.7905H78.8005C76.7675 12.7905 75.2815 13.1109 74.34 13.7531C73.3984 14.3956 72.9347 15.3372 72.9347 16.4837C72.9337 17.644 73.2448 18.5415 73.8678 19.1757C74.4908 19.8102 75.3103 20.1273 76.3264 20.1273C77.1605 20.1273 77.784 19.9974 78.1925 19.7377C78.4455 19.5802 78.6855 19.4032 78.9106 19.2088L78.9479 19.1763L78.9955 19.1338L79.0364 19.0966C79.0651 19.0704 79.0935 19.0439 79.1216 19.0169C79.1525 18.9874 79.1831 18.9576 79.2133 18.9273H79.3477C79.371 19.1501 79.4125 19.3704 79.4716 19.586C79.4838 19.6304 79.4967 19.6748 79.5104 19.7189C79.5234 19.7608 79.5371 19.8025 79.5514 19.8438C79.5688 19.894 79.587 19.9439 79.6063 19.9933H81.8854C81.7935 19.0517 81.7511 18.1029 81.7511 17.1698ZM79.3477 14.6694V17.0639C79.2356 17.2166 79.1124 17.3606 78.9792 17.4946C78.928 17.5461 78.8753 17.5963 78.8212 17.6449C78.7331 17.724 78.6413 17.7993 78.546 17.8699C78.1844 18.1362 77.7454 18.2766 77.2962 18.2694C76.6756 18.2694 76.2331 18.11 75.9291 17.788C75.6163 17.4438 75.4527 16.9903 75.4738 16.5259C75.4738 15.854 75.7368 15.3753 76.2599 15.0929C76.783 14.8106 77.6101 14.6694 78.8457 14.6694H79.3477Z" fill="#191E28"/>
<path fill-rule="evenodd" clip-rule="evenodd" d="M106.866 12.1285V17.17C106.866 18.1031 106.908 19.0519 107 19.9936H104.72C104.587 19.6511 104.5 19.2926 104.461 18.9276H104.328C104.02 19.2356 103.677 19.5074 103.307 19.738C102.897 19.9977 102.275 20.1276 101.441 20.1276C100.424 20.1276 99.6045 19.8105 98.9824 19.176C98.3603 18.5418 98.0493 17.6443 98.0493 16.4837C98.0493 15.3375 98.513 14.3959 99.4532 13.7534C100.393 13.1112 101.882 12.7905 103.915 12.7905H104.461L104.468 12.1285C104.461 11.4565 104.305 10.9836 103.979 10.7082C103.652 10.433 103.14 10.2565 102.458 10.2565C101.763 10.2756 101.076 10.4123 100.427 10.6616C99.8637 10.8436 99.332 11.1116 98.8509 11.4565V9.32344C99.3602 9.02427 99.9007 8.78134 100.463 8.59908C101.212 8.36029 101.996 8.24669 102.783 8.26324C104.178 8.26324 105.231 8.54559 105.911 9.13428C106.591 9.72298 106.866 10.6632 106.866 12.1285ZM104.462 17.0697V14.6697H103.962C102.726 14.6697 101.899 14.8108 101.375 15.0932C100.85 15.3756 100.588 15.8542 100.588 16.5262C100.568 16.9905 100.732 17.4444 101.045 17.7882C101.349 18.1103 101.792 18.2697 102.412 18.2697C102.861 18.2766 103.299 18.1362 103.661 17.8701C103.967 17.6432 104.236 17.3716 104.461 17.0642L104.462 17.0697Z" fill="#191E28"/>
<path d="M93.7739 10.9271V19.9991H96.1788V8.52711H92.5722L90.0345 16.5303L87.7625 8.52711H84.0231V19.9991H86.1607V10.7945L88.8313 19.9991H90.8361L93.7739 10.9271Z" fill="#191E28"/>
</svg>
